# xmcd
#
# Track frame offsets:
#	182
#	13722
#	30110
#	43542
#	57012
#	73505
#	87512
#	100055
#	116052
#	128732
#
# Disc length: 1922 seconds
#
# Revision: 2
# Processed by: cddbd v1.5.1PL0 Copyright (c) Steve Scherf et al.
# Submitted via: audiograbber 1.83.01
#
DISCID=7607800a
DTITLE=David Ball - Super Hits Series
DYEAR=2000
DGENRE=Country
TTITLE0=Thinkin' Problem
TTITLE1=Watching My Baby Not Coming Back
TTITLE2=Look What Followed Me Home
TTITLE3=When The Thought Of You Catches Up With Me
TTITLE4=What Do You Want With His Love
TTITLE5=Lonely Town
TTITLE6=Hangin' In And Hangin' On
TTITLE7=I'll Never Make It Though This Fall
TTITLE8=Circle Of Friends
TTITLE9=Hasta Luego, My Love
EXTD=ID3G: 2
EXTT0=
EXTT1=
EXTT2=
EXTT3=
EXTT4=
EXTT5=
EXTT6=
EXTT7=
EXTT8=
EXTT9=
PLAYORDER=
